<?xml version="1.0" standalone="no"?>
<!DOCTYPE svg PUBLIC "-//W3C//DTD SVG 20010904//EN"
 "http://www.w3.org/TR/2001/REC-SVG-20010904/DTD/svg10.dtd">
<svg version="1.0" xmlns="http://www.w3.org/2000/svg"
 width="400.000000pt" height="400.000000pt" viewBox="0 0 400.000000 400.000000"
 preserveAspectRatio="xMidYMid meet">
<metadata>
Created by potrace 1.11, written by Peter Selinger 2001-2013
</metadata>
<g transform="translate(0.000000,400.000000) scale(0.100000,-0.100000)"
fill="#000000" stroke="none">
<path d="M2355 2803 c-11 -3 -53 -15 -93 -28 l-73 -23 -70 20 c-57 16 -94 19
-189 16 -133 -3 -152 -12 -170 -77 -16 -57 -13 -1489 3 -1521 24 -49 68 -61
209 -58 124 3 128 4 155 31 l28 27 5 618 c5 564 6 620 23 649 42 78 123 68
156 -20 7 -19 11 -226 11 -623 0 -655 -2 -637 61 -670 25 -12 57 -15 160 -12
125 3 129 4 156 31 l28 27 5 608 c5 654 5 648 59 696 33 29 80 12 106 -39 19
-38 20 -65 25 -653 l5 -614 33 -29 c32 -29 33 -29 160 -29 145 0 168 8 195 63
18 36 18 67 10 685 l-8 647 -31 65 c-41 85 -111 162 -179 196 -49 23 -63 26
-137 22 -93 -4 -138 -21 -230 -89 -67 -48 -84 -48 -149 7 -65 54 -116 76 -184
80 -33 1 -69 0 -80 -3z m127 -111 c-7 -2 -12 -10 -12 -18 0 -16 -16 -19 -25
-4 -3 6 -1 10 4 10 6 0 11 7 11 15 0 9 6 12 17 8 11 -4 12 -8 5 -11z m-132 -6
c0 -3 -4 -8 -10 -11 -5 -3 -10 -1 -10 4 0 6 5 11 10 11 6 0 10 -2 10 -4z m520
-26 c0 -5 -8 -10 -17 -10 -15 0 -16 2 -3 10 19 12 20 12 20 0z m-925 -10 c-3
-5 -11 -10 -16 -10 -6 0 -7 5 -4 10 3 6 11 10 16 10 6 0 7 -4 4 -10z m241 -2
c5 -7 2 -9 -8 -5 -9 3 -21 0 -27 -6 -8 -8 -11 -8 -11 0 0 10 14 20 32 22 4 1
10 -4 14 -11z m-93 -5 c-7 -2 -21 -2 -30 0 -10 3 -4 5 12 5 17 0 24 -2 18 -5z
m162 -3 c-3 -5 -13 -10 -21 -10 -8 0 -12 5 -9 10 3 6 13 10 21 10 8 0 12 -4 9
-10z m45 0 c0 -5 -5 -10 -11 -10 -5 0 -7 5 -4 10 3 6 8 10 11 10 2 0 4 -4 4
-10z m68 -8 c2 -7 -2 -10 -12 -6 -11 4 -16 1 -16 -11 0 -9 -4 -13 -10 -10 -6
4 -5 13 3 25 13 21 28 22 35 2z m-231 -41 c15 -19 19 -32 12 -42 -7 -11 -9 -9
-9 8 0 12 -9 27 -20 33 -11 6 -20 15 -20 20 0 17 14 10 37 -19z m407 15 c-5
-13 -34 -31 -34 -22 0 16 14 36 26 36 7 0 11 -6 8 -14z m571 -16 c3 -5 2 -10
-4 -10 -5 0 -13 5 -16 10 -3 6 -2 10 4 10 5 0 13 -4 16 -10z m-1100 -11 c11
-17 -1 -21 -15 -4 -8 9 -8 15 -2 15 6 0 14 -5 17 -11z m415 -26 c0 -21 -29
-53 -47 -53 -19 0 -16 13 7 30 11 8 20 23 20 33 0 10 5 15 10 12 6 -3 10 -13
10 -22z m610 -7 c0 -5 -7 -3 -15 4 -8 7 -12 17 -9 22 7 10 24 -9 24 -26z
m-949 -9 c-6 -8 -8 -17 -4 -20 3 -4 -1 -7 -9 -7 -11 0 -14 6 -11 20 3 11 12
20 20 20 12 0 13 -3 4 -13z m583 -23 c11 -28 6 -39 -9 -20 -8 11 -15 23 -15
28 0 14 18 9 24 -8z m-54 -5 c0 -5 -5 -7 -11 -3 -6 3 -15 0 -20 -7 -7 -11 -9
-10 -9 4 0 10 8 17 20 17 11 0 20 -5 20 -11z m-503 -31 c-3 -8 -6 -5 -6 6 -1
11 2 17 5 13 3 -3 4 -12 1 -19z m367 -2 c24 -6 27 -4 22 9 -4 11 -2 15 6 12 7
-2 12 -10 10 -17 -1 -7 3 -18 9 -26 18 -21 2 -30 -19 -11 -23 21 -36 22 -28 2
3 -8 4 -15 2 -15 -9 0 -63 59 -59 64 4 3 11 2 17 -3 6 -4 24 -11 40 -15z
m-484 -7 c-13 -8 -13 -10 0 -18 16 -11 7 -27 -9 -16 -15 9 -14 42 2 48 18 7
23 -3 7 -14z m1037 -11 c-8 -24 -12 -28 -15 -15 -2 10 2 24 8 32 19 22 20 18
7 -17z m-945 -4 c-6 -33 -19 -36 -18 -5 1 17 6 29 11 27 6 -1 8 -12 7 -22z
m1193 -4 c3 -5 2 -10 -4 -10 -5 0 -13 5 -16 10 -3 6 -2 10 4 10 5 0 13 -4 16
-10z m-1238 -30 c2 -11 -2 -20 -7 -20 -6 0 -10 12 -10 27 0 29 12 24 17 -7z
m-172 -10 c3 -5 2 -10 -4 -10 -5 0 -13 5 -16 10 -3 6 -2 10 4 10 5 0 13 -4 16
-10z m92 4 c-3 -3 -12 -4 -19 -1 -8 3 -5 6 6 6 11 1 17 -2 13 -5z m499 -31
c-11 -11 -19 6 -11 24 8 17 8 17 12 0 3 -10 2 -21 -1 -24z m146 12 c-4 -21 -7
-23 -24 -14 -19 10 -19 11 -1 24 26 20 31 18 25 -10z m-699 -25 c-6 -23 -31
-46 -40 -36 -3 3 -1 6 6 6 6 0 16 11 21 25 11 30 20 33 13 5z m71 -44 c-9 -7
-14 -18 -10 -24 3 -6 1 -14 -5 -18 -8 -4 -9 -3 -5 4 4 7 1 12 -8 12 -20 0 -21
26 -1 34 8 3 15 18 15 33 l1 28 15 -28 c14 -26 14 -30 -2 -41z m1123 58 c-3
-3 -12 -4 -19 -1 -8 3 -5 6 6 6 11 1 17 -2 13 -5z m-1016 -27 c15 4 18 2 13
-11 -10 -25 -44 -20 -43 7 0 12 3 17 5 11 3 -7 14 -10 25 -7z m1129 9 c0 -3
-4 -8 -10 -11 -5 -3 -10 -1 -10 4 0 6 5 11 10 11 6 0 10 -2 10 -4z m-1164 -46
c11 -13 8 -15 -16 -17 -32 -2 -49 12 -25 21 8 3 15 13 16 23 0 14 2 15 6 3 3
-8 11 -22 19 -30z m1128 -2 c16 -11 -6 -10 -23 1 -8 5 -10 14 -5 22 6 10 9 10
12 -1 3 -8 10 -18 16 -22z m-725 7 c-9 -37 -12 -45 -20 -45 -5 0 -9 7 -9 15 0
8 4 15 10 15 5 0 7 7 3 16 -4 11 -2 15 6 13 7 -3 11 -9 10 -14z m50 -27 c-6
-10 -14 -16 -20 -13 -14 9 -11 25 6 25 9 0 12 6 9 18 -5 14 -4 14 4 3 7 -10 7
-21 1 -33z m117 5 c-11 -11 -19 6 -11 24 8 17 8 17 12 0 3 -10 2 -21 -1 -24z
m44 13 c0 -8 -4 -17 -9 -20 -10 -7 -23 19 -14 28 11 11 23 6 23 -8z m404 -21
c-9 -14 -20 -22 -25 -19 -14 8 -10 24 6 24 8 0 15 7 15 16 0 8 4 12 10 9 6 -4
4 -15 -6 -30z m-1145 -28 c1 -4 -5 -2 -13 5 -7 7 -11 19 -8 27 4 11 7 10 13
-5 4 -10 8 -23 8 -27z m-56 19 c16 -13 16 -14 1 -20 -10 -4 -21 -1 -26 6 -18
29 -5 36 25 14z m1254 8 c-3 -3 -12 -4 -19 -1 -8 3 -5 6 6 6 11 1 17 -2 13 -5z
m-1044 -52 c16 -2 27 -9 27 -18 0 -8 -4 -12 -10 -9 -5 3 -10 -3 -10 -14 0 -10
-5 -21 -11 -23 -8 -3 -8 -10 2 -26 11 -18 11 -26 1 -42 -10 -17 -10 -21 3 -26
32 -13 15 -40 -22 -35 -16 2 -16 -14 -1 -39 10 -15 10 -22 0 -32 -9 -9 -12 -6
-12 15 0 35 -16 35 -26 0 -5 -21 -8 -24 -11 -10 -3 9 -9 17 -14 17 -6 0 -7 9
-4 20 7 23 -10 28 -19 5 -4 -12 -10 -13 -24 -6 -25 13 -54 -4 -32 -19 10 -6
11 -10 3 -10 -7 0 -13 -5 -13 -11 0 -6 7 -8 15 -5 9 3 18 -1 21 -9 8 -20 24
-19 24 1 0 14 2 14 16 3 15 -12 14 -15 -12 -25 -23 -10 -31 -9 -47 7 -24 22
-43 14 -26 -9 11 -15 11 -15 -6 0 -15 14 -16 19 -5 33 11 13 11 19 -3 33 -10
10 -17 12 -17 4 0 -6 -7 -9 -17 -5 -13 5 -12 8 8 16 13 6 31 9 39 9 22 -3 49
18 33 25 -7 2 -13 11 -13 19 0 8 -10 14 -25 14 -16 0 -25 6 -25 15 0 8 -6 15
-12 15 -9 0 -8 4 2 10 8 5 10 10 5 10 -6 0 -16 -5 -23 -12 -9 -9 -12 -8 -12 4
0 10 10 18 23 20 18 2 22 9 20 36 -1 31 0 32 16 18 10 -9 20 -13 23 -10 4 3
14 7 25 8 10 2 24 14 30 28 7 14 19 31 27 37 11 9 12 7 9 -13 -3 -13 0 -27 6
-30 17 -11 13 -29 -4 -22 -22 8 -18 -12 5 -24 29 -16 42 -3 35 32 -12 51 -13
63 -7 73 4 5 9 -1 12 -15 4 -18 14 -26 33 -28z m564 -8 c2 -23 0 -33 -7 -29
-5 3 -10 22 -10 42 0 45 12 36 17 -13z m453 15 c0 -6 -4 -7 -10 -4 -5 3 -10
11 -10 16 0 6 5 7 10 4 6 -3 10 -11 10 -16z m-1190 -24 c0 -8 -4 -15 -9 -15
-5 0 -11 7 -15 15 -3 9 0 15 9 15 8 0 15 -7 15 -15z m600 -6 c0 -5 -4 -9 -10
-9 -5 0 -10 7 -10 16 0 8 5 12 10 9 6 -3 10 -10 10 -16z m530 6 c-7 -9 -15
-13 -19 -10 -3 3 1 10 9 15 21 14 24 12 10 -5z m-570 -42 c0 -25 -1 -26 -16
-11 -9 9 -13 21 -10 27 13 20 26 11 26 -16z m225 17 c-3 -5 -12 -10 -18 -10
-7 0 -6 4 3 10 19 12 23 12 15 0z m405 -11 c0 -5 -4 -9 -10 -9 -5 0 -10 7 -10
16 0 8 5 12 10 9 6 -3 10 -10 10 -16z m-1240 -9 c0 -5 -4 -10 -10 -10 -5 0
-10 5 -10 10 0 6 5 10 10 10 6 0 10 -4 10 -10z m717 4 c-3 -3 -12 -4 -19 -1
-8 3 -5 6 6 6 11 1 17 -2 13 -5z m83 -24 c0 -5 -10 -10 -22 -10 -19 0 -20 2
-8 10 19 13 30 13 30 0z m453 -12 c12 -7 23 -13 25 -14 1 -1 -1 -9 -4 -19 -7
-17 -8 -16 -15 3 -10 28 -33 29 -24 2 6 -18 3 -19 -27 -14 -18 4 -37 10 -42
15 -5 4 1 5 14 2 20 -5 22 -3 18 15 -7 26 18 30 55 10z m117 8 c0 -3 -4 -8
-10 -11 -5 -3 -10 -1 -10 4 0 6 5 11 10 11 6 0 10 -2 10 -4z m-563 -48 c-3 -7
-5 -2 -5 12 0 14 2 19 5 13 2 -7 2 -19 0 -25z m-27 -4 c6 -14 7 -31 3 -37 -7
-12 -21 16 -22 46 -1 25 8 21 19 -9z m-120 -8 c0 -8 -4 -18 -10 -21 -5 -3 -10
3 -10 14 0 12 5 21 10 21 6 0 10 -6 10 -14z m-73 -36 c-7 -17 -13 -26 -15 -21
-3 10 15 51 22 51 3 0 -1 -14 -7 -30z m642 -42 l-12 -39 -14 38 c-16 47 -16
43 1 43 8 0 17 8 21 18 15 33 18 -18 4 -60z m-1228 53 c0 10 2 11 6 1 2 -6 9
-9 15 -6 5 3 4 -3 -3 -15 -12 -19 -15 -19 -31 -4 -22 19 -24 41 -3 23 12 -10
15 -10 16 1z m1315 -19 c-17 -16 -18 -16 -5 5 7 12 15 20 18 17 3 -2 -3 -12
-13 -22z m-585 8 c5 0 9 -7 9 -15 0 -12 -4 -13 -25 -3 -27 12 -35 34 -9 24 9
-3 20 -6 25 -6z m-110 -27 c-8 -15 -10 -15 -11 -2 0 17 10 32 18 25 2 -3 -1
-13 -7 -23z m169 3 c0 -2 -7 -7 -16 -10 -8 -3 -12 -2 -9 4 6 10 25 14 25 6z
m595 -16 c3 -5 2 -10 -4 -10 -5 0 -13 5 -16 10 -3 6 -2 10 4 10 5 0 13 -4 16
-10z m-115 -16 c0 -8 -5 -12 -10 -9 -6 4 -8 11 -5 16 9 14 15 11 15 -7z m-527
-9 c4 -8 2 -17 -3 -20 -6 -4 -10 3 -10 14 0 25 6 27 13 6z m447 -32 c0 -32 -5
-28 -14 10 -4 19 -3 26 4 22 5 -3 10 -18 10 -32z m-384 -10 c-10 -10 -19 5
-10 18 6 11 8 11 12 0 2 -7 1 -15 -2 -18z m-616 -2 c0 -5 9 -11 20 -14 11 -3
20 -11 19 -19 0 -9 -2 -10 -6 -1 -3 10 -12 9 -35 -3 -28 -15 -30 -15 -25 0 3
8 2 18 -4 21 -5 4 -7 11 -4 16 8 12 35 12 35 0z m1090 -14 c0 -2 -10 -13 -23
-25 l-24 -22 -18 20 c-18 20 -18 20 12 14 18 -3 33 -1 37 5 7 10 16 15 16 8z
m-1240 -47 c0 -5 -7 -10 -16 -10 -8 0 -12 5 -9 10 3 6 10 10 16 10 5 0 9 -4 9
-10z m1282 -12 c-7 -7 -12 -8 -12 -2 0 14 12 26 19 19 2 -3 -1 -11 -7 -17z
m-685 6 c-3 -3 -12 -4 -19 -1 -8 3 -5 6 6 6 11 1 17 -2 13 -5z m559 -31 c-11
-11 -19 6 -11 24 8 17 8 17 12 0 3 -10 2 -21 -1 -24z m-1126 17 c0 -5 -5 -10
-11 -10 -5 0 -7 5 -4 10 3 6 8 10 11 10 2 0 4 -4 4 -10z m25 -20 c3 -5 1 -10
-4 -10 -6 0 -11 5 -11 10 0 6 2 10 4 10 3 0 8 -4 11 -10z m475 0 c0 -5 -2 -10
-4 -10 -3 0 -8 5 -11 10 -3 6 -1 10 4 10 6 0 11 -4 11 -10z m-397 -19 c-3 -12
-11 -17 -19 -14 -12 4 -11 8 3 19 10 7 19 14 20 14 0 0 -1 -9 -4 -19z m1047
-23 c0 -12 -3 -18 -7 -15 -3 4 -12 2 -19 -4 -10 -8 -11 -6 -1 15 15 32 27 33
27 4z m-533 6 c-3 -3 -12 -4 -19 -1 -8 3 -5 6 6 6 11 1 17 -2 13 -5z m-567
-44 c0 -5 -5 -10 -11 -10 -5 0 -7 5 -4 10 3 6 8 10 11 10 2 0 4 -4 4 -10z
m1200 0 c0 -5 -5 -10 -11 -10 -5 0 -7 5 -4 10 3 6 8 10 11 10 2 0 4 -4 4 -10z
m-119 -43 c-10 -9 -11 -8 -5 6 3 10 9 15 12 12 3 -3 0 -11 -7 -18z m-583 -22
c-3 -3 -9 2 -12 12 -6 14 -5 15 5 6 7 -7 10 -15 7 -18z m759 -1 c-3 -3 -12 -4
-19 -1 -8 3 -5 6 6 6 11 1 17 -2 13 -5z m-567 -38 c0 -3 -4 -8 -10 -11 -5 -3
-10 -1 -10 4 0 6 5 11 10 11 6 0 10 -2 10 -4z m-600 -30 c0 -3 -4 -8 -10 -11
-5 -3 -10 -1 -10 4 0 6 5 11 10 11 6 0 10 -2 10 -4z m380 -26 c0 -5 -4 -10
-10 -10 -5 0 -10 5 -10 10 0 6 5 10 10 10 6 0 10 -4 10 -10z m800 -36 c0 -8
-4 -13 -9 -10 -9 6 -35 -20 -44 -44 -4 -13 -6 -12 -12 2 -5 12 2 25 22 42 33
30 43 32 43 10z m-1387 -26 c-5 -10 -33 10 -33 23 0 5 9 4 19 -3 11 -7 17 -16
14 -20z m202 2 c-3 -5 -12 -10 -18 -10 -7 0 -6 4 3 10 19 12 23 12 15 0z m990
-10 c10 -11 16 -20 13 -20 -3 0 -13 9 -23 20 -10 11 -16 20 -13 20 3 0 13 -9
23 -20z m-1135 -6 c0 -2 -9 -4 -20 -4 -11 0 -20 4 -20 9 0 5 9 7 20 4 11 -3
20 -7 20 -9z m75 -14 c-3 -5 -10 -10 -16 -10 -5 0 -9 5 -9 10 0 6 7 10 16 10
8 0 12 -4 9 -10z"/>
<path d="M1910 2175 c0 -8 -5 -15 -11 -15 -6 0 -9 -12 -7 -27 5 -47 33 -35 35
15 1 23 -3 42 -8 42 -5 0 -9 -7 -9 -15z"/>
<path d="M2031 2144 c0 -11 3 -14 6 -6 3 7 2 16 -1 19 -3 4 -6 -2 -5 -13z"/>
<path d="M2030 2104 c0 -9 7 -14 17 -12 25 5 28 28 4 28 -12 0 -21 -6 -21 -16z"/>
<path d="M699 2735 c-15 -8 -30 -26 -33 -40 -4 -16 23 -213 65 -473 39 -246
91 -571 115 -722 54 -337 58 -322 -98 -345 -55 -8 -96 -47 -103 -98 -10 -63 5
-108 45 -134 32 -22 40 -23 279 -23 141 0 262 5 284 11 50 13 106 64 129 116
11 24 49 229 93 500 41 252 99 610 130 796 30 186 55 348 55 358 0 11 -11 31
-25 44 -23 24 -29 25 -161 25 -186 0 -200 -9 -223 -145 -6 -33 -20 -143 -31
-244 -27 -246 -37 -280 -75 -253 -6 4 -26 122 -44 262 -38 298 -44 324 -78
356 -25 23 -32 24 -162 24 -98 -1 -143 -5 -162 -15z m71 -69 c0 -2 -7 -7 -16
-10 -8 -3 -12 -2 -9 4 6 10 25 14 25 6z m55 -6 c-27 -12 -35 -12 -35 0 0 6 12
10 28 9 24 0 25 -1 7 -9z m701 -55 c10 -8 15 -14 9 -14 -5 0 -19 6 -29 14 -11
8 -15 15 -10 15 6 0 19 -7 30 -15z m24 -60 c-14 -17 -30 -20 -30 -5 0 6 7 10
15 10 8 0 15 5 15 12 0 6 3 8 6 5 4 -4 1 -13 -6 -22z m-565 -55 c3 -6 -1 -7
-9 -4 -18 7 -21 14 -7 14 6 0 13 -4 16 -10z m556 -47 c7 -7 6 -13 0 -17 -13
-8 -25 13 -24 41 2 36 5 40 10 13 3 -14 9 -30 14 -37z m13 42 c-4 -8 -8 -15
-10 -15 -2 0 -4 7 -4 15 0 8 4 15 10 15 5 0 7 -7 4 -15z m-594 -20 c0 -8 -9
-15 -19 -15 -11 0 -23 -4 -26 -10 -7 -12 -35 -14 -35 -2 0 10 51 41 68 42 6 0
12 -7 12 -15z m478 -50 c-3 -3 -9 2 -12 12 -6 14 -5 15 5 6 7 -7 10 -15 7 -18z
m88 -36 c12 -24 13 -34 4 -43 -9 -8 -11 -7 -8 4 2 8 -11 21 -28 30 -28 14 -30
18 -15 28 24 17 29 15 47 -19z m-76 8 c0 -2 -11 -14 -25 -27 -18 -16 -25 -19
-25 -9 0 12 8 19 48 38 1 0 2 0 2 -2z m-444 -54 c-8 -9 -55 -12 -60 -4 -3 4 5
8 16 8 12 1 26 7 32 13 8 8 12 8 14 0 2 -6 2 -14 -2 -17z m496 -35 c-9 -9 -7
-15 6 -25 15 -13 15 -13 -5 -4 -12 6 -24 11 -27 11 -13 0 -5 -21 16 -42 17
-17 19 -23 7 -26 -8 -3 -19 -12 -26 -21 -10 -14 -12 -14 -11 4 3 37 -12 74
-32 80 -11 4 -18 10 -15 15 3 5 11 7 18 4 8 -3 24 0 38 5 33 13 45 13 31 -1z
m-132 -22 c0 -2 -7 -7 -16 -10 -8 -3 -12 -2 -9 4 6 10 25 14 25 6z m-345 -36
c8 -13 -5 -13 -25 0 -13 8 -13 10 2 10 9 0 20 -4 23 -10z m299 -22 c8 -5 7
-11 -2 -20 -9 -9 -12 -8 -12 6 0 12 -5 16 -15 12 -13 -5 -14 -2 -4 17 10 17
13 19 17 7 3 -8 10 -18 16 -22z m86 28 c0 -2 -7 -9 -15 -16 -13 -11 -14 -10
-9 4 5 14 24 23 24 12z m-40 -36 c0 -5 -4 -10 -10 -10 -5 0 -10 5 -10 10 0 6
5 10 10 10 6 0 10 -4 10 -10z m140 -27 c0 -5 -5 -15 -10 -23 -8 -12 -10 -11
-10 8 0 12 5 22 10 22 6 0 10 -3 10 -7z m-40 -43 c0 -11 6 -20 13 -20 8 0 7
-4 -3 -10 -22 -14 -25 -13 -27 20 -1 17 2 30 7 30 6 0 10 -9 10 -20z m-480 -6
c0 -8 -32 -33 -43 -34 -4 0 -3 9 3 20 10 18 40 29 40 14z m334 -19 c-6 -16
-24 -21 -24 -7 0 11 11 22 21 22 5 0 6 -7 3 -15z m70 -27 c-3 -4 2 -8 11 -8
21 0 14 -24 -8 -28 -10 -2 -17 3 -17 13 0 8 -10 20 -22 25 -21 8 -20 9 9 7 17
0 29 -5 27 -9z m76 -22 c0 -8 -4 -18 -10 -21 -5 -3 -10 -4 -10 -1 0 2 -3 11
-6 20 -4 11 -1 16 10 16 9 0 16 -6 16 -14z m-148 -21 c0 -5 -5 -11 -10 -13 -5
-1 -9 4 -9 13 0 9 4 14 9 13 5 -2 10 -8 10 -13z m-42 -42 c0 -19 -13 -9 -16
12 -1 8 2 13 7 9 5 -3 9 -12 9 -21z m194 11 c4 -9 0 -22 -8 -28 -7 -6 -16 -17
-18 -25 -6 -20 -48 22 -47 47 0 13 3 12 11 -5 13 -28 28 -30 28 -5 0 33 23 44
34 16z m-413 -37 c-13 -13 -15 1 -4 30 7 17 8 17 11 -1 2 -10 -1 -23 -7 -29z
m319 21 c0 -21 0 -21 -14 -2 -13 17 -18 17 -36 6 -12 -7 -25 -11 -28 -7 -10
10 20 25 51 25 21 0 27 -5 27 -22z m-205 -8 c4 -6 -6 -10 -22 -10 -22 0 -25 2
-13 10 19 12 27 12 35 0z m58 -7 c-20 -7 -15 -20 9 -26 12 -4 35 0 50 8 17 8
28 9 28 3 0 -6 6 -8 13 -5 8 3 20 1 28 -4 11 -7 12 -12 2 -28 -12 -20 -8 -31
12 -31 7 0 15 14 19 30 5 27 8 29 24 19 11 -7 18 -19 16 -28 -11 -58 -16 -70
-32 -73 -15 -3 -13 -7 10 -31 15 -15 23 -27 19 -27 -5 0 -14 7 -21 15 -17 20
-44 0 -36 -28 3 -13 0 -17 -10 -13 -8 3 -14 1 -14 -4 0 -6 7 -10 15 -10 14 0
40 -69 28 -79 -3 -3 -8 0 -10 7 -3 6 -11 12 -19 12 -8 0 -14 4 -14 10 0 5 7 7
15 4 8 -4 15 -1 15 4 0 17 -41 41 -59 35 -16 -6 32 54 56 70 7 4 10 14 7 22
-8 19 -24 19 -24 0 0 -18 -56 -48 -72 -39 -7 4 -22 8 -35 9 -12 0 -28 6 -35
13 -11 11 -10 12 5 7 21 -9 22 3 2 24 -58 64 -55 57 -32 80 23 23 16 41 -8 21
-11 -9 -15 -9 -15 -1 0 6 11 16 24 21 13 5 27 14 31 20 4 6 10 8 14 4 3 -4 0
-9 -6 -11z m-122 -8 c-1 -15 -24 -12 -29 3 -3 9 2 13 12 10 10 -1 17 -7 17
-13z m-101 -10 c-7 -9 -15 -13 -19 -10 -3 3 1 10 9 15 21 14 24 12 10 -5z
m-95 -34 c-3 -6 -14 -10 -23 -10 -15 1 -15 2 1 6 9 2 17 9 17 15 0 6 3 9 6 5
3 -3 3 -10 -1 -16z m235 4 c13 -16 6 -35 -15 -35 -7 0 -12 10 -11 25 1 28 8
31 26 10z m-80 -5 c0 -5 -7 -10 -16 -10 -8 0 -12 5 -9 10 3 6 10 10 16 10 5 0
9 -4 9 -10z m88 -71 c-11 -18 -10 -23 10 -39 28 -23 28 -30 -1 -30 -32 0 -54
57 -29 76 25 20 34 17 20 -7z m-198 -23 c0 -2 -8 -10 -17 -17 -16 -13 -17 -12
-4 4 13 16 21 21 21 13z m117 -48 c-3 -8 -6 -5 -6 6 -1 11 2 17 5 13 3 -3 4
-12 1 -19z m136 -25 c-7 -2 -19 -2 -25 0 -7 3 -2 5 12 5 14 0 19 -2 13 -5z
m59 -11 c10 -4 14 -12 10 -18 -5 -6 -13 -4 -24 8 -19 19 -15 21 14 10z m1 -93
c4 -16 3 -18 -9 -8 -7 6 -11 15 -8 20 8 13 11 11 17 -12z m-286 -21 c-3 -8 -6
-5 -6 6 -1 11 2 17 5 13 3 -3 4 -12 1 -19z m203 -13 c0 -8 -2 -15 -4 -15 -2 0
-6 7 -10 15 -3 8 -1 15 4 15 6 0 10 -7 10 -15z m50 -19 c0 -3 -4 -8 -10 -11
-5 -3 -10 -1 -10 4 0 6 5 11 10 11 6 0 10 -2 10 -4z m130 -16 c0 -5 -2 -10 -4
-10 -3 0 -8 5 -11 10 -3 6 -1 10 4 10 6 0 11 -4 11 -10z m-90 -270 c0 -5 -10
-10 -22 -9 -22 0 -22 1 -3 9 11 5 21 9 23 9 1 1 2 -3 2 -9z m11 -123 c-10 -9
-11 -8 -5 6 3 10 9 15 12 12 3 -3 0 -11 -7 -18z m-346 -117 c3 -5 -1 -10 -10
-10 -9 0 -13 5 -10 10 3 6 8 10 10 10 2 0 7 -4 10 -10z m164 -96 c2 -2 -12 -4
-32 -4 -20 0 -38 4 -42 9 -5 9 64 4 74 -5z"/>
<path d="M1220 1940 c0 -5 5 -10 10 -10 6 0 10 5 10 10 0 6 -4 10 -10 10 -5 0
-10 -4 -10 -10z"/>
<path d="M1400 1890 c0 -5 5 -10 10 -10 6 0 10 5 10 10 0 6 -4 10 -10 10 -5 0
-10 -4 -10 -10z"/>
<path d="M1210 1879 c0 -5 5 -7 10 -4 6 3 10 8 10 11 0 2 -4 4 -10 4 -5 0 -10
-5 -10 -11z"/>
<path d="M1362 1879 c2 -7 10 -15 17 -17 8 -3 12 1 9 9 -2 7 -10 15 -17 17 -8
3 -12 -1 -9 -9z"/>
<path d="M1255 1830 c3 -5 8 -10 11 -10 2 0 4 5 4 10 0 6 -5 10 -11 10 -5 0
-7 -4 -4 -10z"/>
</g>
</svg>
